<?xml version="1.0" standalone="no"?>
<!DOCTYPE svg PUBLIC "-//W3C//DTD SVG 20010904//EN"
 "http://www.w3.org/TR/2001/REC-SVG-20010904/DTD/svg10.dtd">
<svg version="1.0" xmlns="http://www.w3.org/2000/svg"
 width="512.000000pt" height="512.000000pt" viewBox="0 0 512.000000 512.000000"
 preserveAspectRatio="xMidYMid meet">
<metadata>
Created by potrace 1.14, written by Peter Selinger 2001-2017
</metadata>
<g transform="translate(0.000000,512.000000) scale(0.100000,-0.100000)"
fill="#000000" stroke="none">
<path d="M3888 5035 c-1 -1 -26 -5 -55 -9 -107 -13 -275 -77 -394 -151 -236
-147 -427 -440 -464 -710 -13 -94 17 -85 -285 -85 l-268 0 -64 160 -63 160
-935 0 -936 0 -13 -37 c-7 -21 -19 -51 -27 -68 -7 -16 -49 -122 -94 -235 -45
-113 -99 -248 -120 -300 -22 -52 -52 -129 -68 -170 l-30 -75 84 -167 84 -168
0 -590 0 -590 240 0 240 0 1 -537 c0 -296 3 -551 5 -568 20 -130 107 -240 240
-302 l59 -28 328 -3 327 -3 0 -160 0 -159 -160 0 -160 0 0 -80 0 -80 1200 0
1200 0 0 80 0 80 -160 0 -160 0 0 160 0 160 303 0 c313 0 355 5 442 46 52 24
137 109 165 165 51 98 50 72 50 1206 l0 1062 72 36 c135 69 273 187 368 315
63 83 137 243 166 355 32 122 40 306 18 429 -60 347 -300 651 -614 780 -101
41 -106 43 -195 63 -59 13 -316 28 -327 18z"/>
</g>
</svg>
